<svg width="22" height="22" viewBox="0 0 22 22" fill="none" xmlns="http://www.w3.org/2000/svg">
<circle cx="11" cy="11" r="9" fill="white"/>
<path d="M14.2793 5.85352H7.7223C6.67571 5.85352 5.82422 6.70501 5.82422 7.7516V14.3086C5.82422 15.3552 6.67571 16.2069 7.7223 16.2069H14.2793C15.3259 16.2069 16.1776 15.3554 16.1776 14.3086V7.7516C16.1776 6.70501 15.3261 5.85352 14.2793 5.85352ZM11.0008 14.4385C9.1216 14.4385 7.59264 12.9096 7.59264 11.0301C7.59264 9.15089 9.1216 7.62194 11.0008 7.62194C12.8803 7.62194 14.4092 9.15089 14.4092 11.0301C14.4092 12.9093 12.88 14.4385 11.0008 14.4385ZM14.5188 8.32661C14.0739 8.32661 13.7121 7.96484 13.7121 7.52022C13.7121 7.0756 14.0739 6.71383 14.5188 6.71383C14.9634 6.71383 15.3252 7.0756 15.3252 7.52022C15.3252 7.96484 14.9634 8.32661 14.5188 8.32661Z" fill="url(#paint0_linear)"/>
<path d="M10.9994 9.0625C9.9146 9.0625 9.03125 9.94536 9.03125 11.0302C9.03125 12.1155 9.9146 12.9986 10.9994 12.9986C12.0848 12.9986 12.9674 12.1155 12.9674 11.0302C12.9674 9.94561 12.0845 9.0625 10.9994 9.0625Z" fill="url(#paint1_linear)"/>
<path d="M11 0C4.92511 0 0 4.92511 0 11C0 17.0749 4.92511 22 11 22C17.0749 22 22 17.0749 22 11C22 4.92511 17.0749 0 11 0ZM17.6168 14.3082C17.6168 16.1491 16.1195 17.6465 14.2785 17.6465H7.7215C5.88077 17.6465 4.38319 16.1491 4.38319 14.3082V7.75115C4.38319 5.91043 5.88077 4.41284 7.7215 4.41284H14.2785C16.1195 4.41284 17.6168 5.91043 17.6168 7.75115V14.3082Z" fill="url(#paint2_linear)"/>
<defs>
<linearGradient id="paint0_linear" x1="5.50195" y1="5.50056" x2="16.502" y2="17.6791" gradientUnits="userSpaceOnUse">
<stop stop-color="#FF8C5D"/>
<stop offset="0.489583" stop-color="#FF407C"/>
<stop offset="1" stop-color="#BD1C9E"/>
</linearGradient>
<linearGradient id="paint1_linear" x1="9.03432" y1="9.03641" x2="12.57" y2="12.5721" gradientUnits="userSpaceOnUse">
<stop stop-color="#FF5076"/>
<stop offset="1" stop-color="#EB328E"/>
</linearGradient>
<linearGradient id="paint2_linear" x1="3.53572" y1="-3.63786e-07" x2="20.0357" y2="23.5714" gradientUnits="userSpaceOnUse">
<stop stop-color="#FBD525"/>
<stop offset="0.473958" stop-color="#FF477A"/>
<stop offset="1" stop-color="#7B1CC7"/>
</linearGradient>
</defs>
</svg>
