<svg width="16" height="16" viewBox="0 0 16 16" fill="none" xmlns="http://www.w3.org/2000/svg">
<path d="M8 15.636C7.86482 15.6357 7.73458 15.5851 7.63455 15.4942C7.40545 15.2869 2 10.3778 2 6.36328C2 4.77198 2.63214 3.24586 3.75736 2.12064C4.88258 0.995422 6.4087 0.363281 8 0.363281C9.5913 0.363281 11.1174 0.995422 12.2426 2.12064C13.3679 3.24586 14 4.77198 14 6.36328C14 10.3778 8.59455 15.2869 8.36545 15.4942C8.26542 15.5851 8.13518 15.6357 8 15.636ZM8 1.45419C6.69803 1.45419 5.44938 1.9714 4.52875 2.89203C3.60812 3.81266 3.09091 5.06131 3.09091 6.36328C3.09091 9.34146 6.80545 13.1815 8 14.3378C9.19455 13.1815 12.9091 9.34146 12.9091 6.36328C12.9091 5.06131 12.3919 3.81266 11.4713 2.89203C10.5506 1.9714 9.30197 1.45419 8 1.45419Z" fill="#666666"/>
<path d="M8.00071 9.09127C7.46131 9.09127 6.93402 8.93131 6.48552 8.63164C6.03702 8.33196 5.68746 7.90602 5.48104 7.40767C5.27462 6.90933 5.22061 6.36097 5.32584 5.83193C5.43107 5.30289 5.69082 4.81694 6.07224 4.43552C6.45365 4.0541 6.93961 3.79436 7.46865 3.68912C7.99769 3.58389 8.54605 3.6379 9.04439 3.84432C9.54274 4.05074 9.96868 4.4003 10.2684 4.8488C10.568 5.2973 10.728 5.82459 10.728 6.36399C10.728 7.08731 10.4406 7.781 9.92918 8.29247C9.41772 8.80393 8.72403 9.09127 8.00071 9.09127ZM8.00071 4.72763C7.67707 4.72763 7.3607 4.8236 7.0916 5.00341C6.8225 5.18321 6.61276 5.43878 6.48891 5.73778C6.36506 6.03679 6.33265 6.36581 6.39579 6.68323C6.45893 7.00065 6.61478 7.29223 6.84363 7.52108C7.07248 7.74993 7.36405 7.90577 7.68147 7.96891C7.9989 8.03205 8.32791 7.99965 8.62692 7.8758C8.92593 7.75194 9.18149 7.54221 9.3613 7.27311C9.5411 7.00401 9.63707 6.68763 9.63707 6.36399C9.63707 5.93 9.46467 5.51379 9.1578 5.20691C8.85092 4.90003 8.4347 4.72763 8.00071 4.72763Z" fill="#666666"/>
</svg>
