<svg width="16" height="16" viewBox="0 0 16 16" fill="none" xmlns="http://www.w3.org/2000/svg">
<g clip-path="url(#clip0)">
<path d="M14.6484 3.35284L10.315 2.02006L10.2917 2.01506C10.2334 2.00507 10.125 1.98508 10.02 2.02006L5.83336 3.30619L1.64836 2.02006C1.50336 1.97508 1.33836 2.00673 1.20669 2.10503C1.07503 2.20332 0.99836 2.35326 1.00003 2.50153V12.1675C1.00003 12.3807 1.14836 12.5807 1.35169 12.644L5.68503 13.9767C5.73336 13.9917 5.78336 13.9984 5.83336 13.9984C5.88336 13.9984 5.93336 13.9917 5.98169 13.9767L10.1667 12.6906L14.3517 13.9767C14.495 14.0217 14.66 13.9901 14.7917 13.8934C14.9234 13.7968 15 13.6502 15 13.5003V3.83764C15.0034 3.62106 14.855 3.41781 14.6484 3.35284ZM14 4.20249V12.8172L10.6667 11.796V3.18124L14 4.20249ZM9.66669 3.18124V11.796L6.33336 12.8189V4.20249L9.66669 3.18124ZM5.33336 4.20249V12.8172L2.00003 11.796V3.18124L5.33336 4.20249Z" fill="#666666"/>
</g>
<defs>
<clipPath id="clip0">
<rect width="14" height="12" fill="white" transform="translate(1 2)"/>
</clipPath>
</defs>
</svg>
