<svg width="22" height="22" viewBox="0 0 22 22" fill="none" xmlns="http://www.w3.org/2000/svg">
<path d="M11 22C17.0751 22 22 17.0751 22 11C22 4.92487 17.0751 0 11 0C4.92487 0 0 4.92487 0 11C0 17.0751 4.92487 22 11 22Z" fill="#039CE0"/>
<path d="M16.862 12.1466C16.9343 11.7753 16.9725 11.3918 16.9725 10.9993C16.9725 7.70047 14.2983 5.02619 10.9994 5.02619C10.6069 5.02619 10.2234 5.06448 9.85213 5.13672C9.34163 4.83798 8.74793 4.66602 8.11375 4.66602C6.20961 4.66602 4.66602 6.20961 4.66602 8.11375C4.66602 8.74793 4.83802 9.34163 5.13672 9.85209C5.06448 10.2234 5.02619 10.6069 5.02619 10.9993C5.02619 14.2982 7.70047 16.9725 10.9993 16.9725C11.3918 16.9725 11.7753 16.9342 12.1466 16.862C12.6571 17.1607 13.2508 17.3327 13.8849 17.3327C15.7891 17.3327 17.3327 15.7891 17.3327 13.8849C17.3328 13.2508 17.1608 12.6571 16.862 12.1466ZM11.1129 15.1015C8.99035 15.1015 7.92909 14.3055 7.60255 13.3055C7.27601 12.3055 7.99032 12.0197 8.21482 11.9993C8.43931 11.9789 8.91553 12.0333 9.05158 12.4483C9.19301 12.8797 9.66384 13.7341 10.6843 13.8361C11.7047 13.9382 12.3782 13.4688 12.5823 12.979C12.7864 12.4891 12.419 11.8157 10.8475 11.5912C9.27607 11.3667 7.64337 10.6728 7.64337 9.10129C7.64337 7.52982 9.43934 6.89714 11.1537 6.89714C12.868 6.89714 13.7371 7.86538 13.9293 8.24412C14.1674 8.71352 14.0857 9.49563 13.5211 9.63192C12.9292 9.77478 12.6231 9.44824 12.1945 8.6523C11.7513 7.82921 10.1741 8.04004 9.64343 8.50944C9.1128 8.97884 9.25566 9.65233 11.4598 10.0809C13.664 10.5095 14.4803 11.3054 14.4803 12.5504C14.4803 13.7953 13.2354 15.1015 11.1129 15.1015Z" fill="white"/>
</svg>
