<svg width="22" height="22" viewBox="0 0 22 22" fill="none" xmlns="http://www.w3.org/2000/svg">
<path d="M11 22C17.0751 22 22 17.0751 22 11C22 4.92487 17.0751 0 11 0C4.92487 0 0 4.92487 0 11C0 17.0751 4.92487 22 11 22Z" fill="#755EF4"/>
<path d="M17.7011 7.97924L17.6971 7.96334C17.3755 6.66297 15.9253 5.2676 14.5936 4.9773L14.5785 4.97421C12.4245 4.56328 10.2404 4.56328 8.08684 4.97421L8.07137 4.9773C6.74007 5.2676 5.28991 6.66297 4.9678 7.96334L4.96427 7.97924C4.5666 9.79526 4.5666 11.6369 4.96427 13.4529L4.9678 13.4688C5.27617 14.7137 6.61834 16.0449 7.90037 16.4111V17.8626C7.90037 18.388 8.54062 18.646 8.9047 18.2669L10.3754 16.7382C10.6944 16.756 11.0135 16.766 11.3327 16.766C12.417 16.766 13.5017 16.6635 14.5785 16.458L14.5936 16.4549C15.9253 16.1646 17.3755 14.7692 17.6971 13.4689L17.7011 13.453C18.0988 11.6369 18.0988 9.79526 17.7011 7.97924ZM16.5373 13.1896C16.3225 14.0379 15.2214 15.0926 14.3466 15.2875C13.2012 15.5053 12.0468 15.5984 10.8936 15.5664C10.8707 15.5658 10.8486 15.5747 10.8326 15.5911C10.669 15.7591 9.7588 16.6935 9.7588 16.6935L8.61662 17.8657C8.53311 17.9527 8.38641 17.8935 8.38641 17.7733V15.3687C8.38641 15.329 8.35804 15.2952 8.31903 15.2876C8.31881 15.2875 8.31859 15.2875 8.31837 15.2874C7.4435 15.0926 6.34284 14.0379 6.12766 13.1895C5.76976 11.548 5.76976 9.88403 6.12766 8.24254C6.34284 7.39419 7.4435 6.33949 8.31837 6.14463C10.3186 5.76419 12.3467 5.76419 14.3466 6.14463C15.2219 6.33949 16.3225 7.39419 16.5373 8.24254C16.8956 9.88407 16.8956 11.5481 16.5373 13.1896Z" fill="white"/>
<path d="M13.2334 14.2998C13.0989 14.259 12.9707 14.2315 12.8517 14.1821C11.6182 13.6704 10.483 13.0102 9.5838 11.9981C9.07245 11.4226 8.67222 10.7728 8.33389 10.0852C8.17345 9.75914 8.03825 9.42028 7.90043 9.08363C7.77477 8.77664 7.95986 8.45947 8.15476 8.22816C8.33765 8.01108 8.57298 7.84495 8.82784 7.72251C9.02676 7.62694 9.22299 7.68204 9.36827 7.85065C9.68234 8.21517 9.97082 8.59835 10.2044 9.02089C10.3481 9.28079 10.3087 9.59848 10.0483 9.77535C9.98505 9.81835 9.92739 9.8688 9.86844 9.91736C9.81675 9.95991 9.7681 10.0029 9.73266 10.0605C9.66789 10.1659 9.66479 10.2903 9.7065 10.4049C10.0276 11.2872 10.5687 11.9733 11.4567 12.3428C11.5988 12.4019 11.7415 12.4707 11.9053 12.4517C12.1794 12.4196 12.2682 12.1189 12.4603 11.9618C12.6481 11.8082 12.8881 11.8062 13.0903 11.9342C13.2927 12.0622 13.4888 12.1997 13.6838 12.3386C13.8751 12.475 14.0656 12.6084 14.2422 12.7638C14.4119 12.9133 14.4703 13.1094 14.3748 13.3122C14.1998 13.6838 13.9452 13.9928 13.5779 14.1901C13.4742 14.2457 13.3504 14.2638 13.2334 14.2998C13.0989 14.2589 13.3504 14.2638 13.2334 14.2998Z" fill="white"/>
<path d="M11.3338 7.2995C12.9473 7.3447 14.2724 8.41544 14.5564 10.0105C14.6048 10.2823 14.622 10.5602 14.6435 10.836C14.6526 10.9521 14.5869 11.0623 14.4617 11.0638C14.3323 11.0654 14.2742 10.9572 14.2658 10.8412C14.2491 10.6116 14.2376 10.381 14.206 10.1533C14.039 8.95141 13.0806 7.95706 11.8843 7.74369C11.7043 7.71157 11.52 7.70313 11.3376 7.684C11.2224 7.67189 11.0714 7.66491 11.0459 7.52162C11.0244 7.40148 11.1258 7.30582 11.2402 7.29968C11.2713 7.29795 11.3026 7.29937 11.3338 7.2995C12.9473 7.3447 11.3026 7.29937 11.3338 7.2995Z" fill="white"/>
<path d="M13.7863 10.477C13.7837 10.4972 13.7822 10.5446 13.7704 10.5892C13.7276 10.7512 13.482 10.7714 13.4255 10.608C13.4087 10.5594 13.4062 10.5043 13.4061 10.452C13.4056 10.1103 13.3313 9.76892 13.159 9.4716C12.9818 9.16601 12.7112 8.90912 12.3938 8.75368C12.2018 8.6597 11.9942 8.60128 11.7839 8.56647C11.6919 8.55127 11.599 8.54203 11.5066 8.52917C11.3946 8.51362 11.3349 8.44226 11.3402 8.33193C11.3451 8.22854 11.4207 8.15417 11.5333 8.16054C11.9036 8.18157 12.2613 8.26159 12.5904 8.4359C13.2598 8.7904 13.6422 9.34996 13.7538 10.0971C13.7589 10.131 13.767 10.1645 13.7696 10.1985C13.7759 10.2824 13.7799 10.3664 13.7863 10.477C13.7837 10.4972 13.7799 10.3664 13.7863 10.477Z" fill="white"/>
<path d="M12.7838 10.4389C12.6488 10.4413 12.5765 10.3666 12.5626 10.2428C12.5529 10.1565 12.5453 10.0691 12.5247 9.98512C12.4842 9.81978 12.3963 9.66654 12.2572 9.56522C12.1915 9.51737 12.1171 9.48251 12.0392 9.46002C11.9401 9.43143 11.8373 9.4393 11.7385 9.41508C11.6312 9.38879 11.5719 9.30192 11.5888 9.20127C11.6041 9.10967 11.6932 9.03818 11.7933 9.04543C12.4188 9.09059 12.8659 9.41398 12.9297 10.1504C12.9342 10.2023 12.9395 10.2573 12.928 10.307C12.9082 10.3921 12.8452 10.4347 12.7838 10.4389C12.6488 10.4413 12.8452 10.4347 12.7838 10.4389Z" fill="white"/>
</svg>
