<svg width="22" height="22" viewBox="0 0 22 22" fill="none" xmlns="http://www.w3.org/2000/svg">
<path d="M11 22C17.0751 22 22 17.0751 22 11C22 4.92487 17.0751 0 11 0C4.92487 0 0 4.92487 0 11C0 17.0751 4.92487 22 11 22Z" fill="#36DD5B"/>
<path d="M5.33203 16.666L6.17153 13.6844C5.63168 12.7673 5.34745 11.7238 5.34745 10.6518C5.34745 7.35124 8.03267 4.66602 11.3333 4.66602C14.6338 4.66602 17.319 7.35124 17.319 10.6518C17.319 13.9524 14.6338 16.6376 11.3333 16.6376C10.3048 16.6376 9.29777 16.3744 8.4069 15.8745L5.33203 16.666ZM8.5641 14.7855L8.74732 14.8974C9.52405 15.3716 10.4183 15.6222 11.3333 15.6222C14.0739 15.6222 16.3036 13.3925 16.3036 10.6518C16.3036 7.91113 14.0739 5.68141 11.3333 5.68141C8.59256 5.68141 6.36284 7.91113 6.36284 10.6518C6.36284 11.6068 6.63425 12.5341 7.14766 13.3336L7.27105 13.5258L6.78761 15.2428L8.5641 14.7855Z" fill="white"/>
<path d="M9.65346 7.86758L9.26506 7.84641C9.14306 7.83975 9.02339 7.88052 8.93118 7.96062C8.74288 8.12414 8.4418 8.44026 8.34932 8.85221C8.21142 9.46644 8.42454 10.2186 8.97612 10.9707C9.5277 11.7229 10.5556 12.9263 12.3733 13.4403C12.959 13.6059 13.4198 13.4942 13.7753 13.2668C14.0568 13.0867 14.2509 12.7976 14.3209 12.4708L14.3829 12.1812C14.4026 12.0891 14.3558 11.9957 14.2703 11.9563L12.9577 11.3512C12.8724 11.312 12.7714 11.3368 12.7141 11.4111L12.1987 12.0791C12.1598 12.1296 12.0932 12.1496 12.033 12.1285C11.6801 12.0044 10.498 11.5093 9.84932 10.2599C9.82119 10.2057 9.82818 10.1399 9.86808 10.0937L10.3606 9.52395C10.4109 9.46577 10.4236 9.38397 10.3934 9.31327L9.82754 7.98946C9.79742 7.91899 9.72992 7.87175 9.65346 7.86758Z" fill="white"/>
</svg>
