<svg width="101" height="107" viewBox="0 0 101 107" fill="none" xmlns="http://www.w3.org/2000/svg">
<path d="M45.7283 2.59085C48.7043 0.975027 52.2957 0.975027 55.2717 2.59085L75.2207 13.4225L95.3962 26.3987C98.2646 28.2436 99.995 31.4231 99.9867 34.8336L99.9414 53.5L99.9867 72.1664C99.995 75.5769 98.2646 78.7564 95.3962 80.6013L75.2207 93.5775L55.2717 104.409C52.2957 106.025 48.7043 106.025 45.7283 104.409L25.7793 93.5775L5.60383 80.6013C2.73542 78.7564 1.00501 75.5769 1.01329 72.1664L1.05861 53.5L1.01329 34.8336C1.00501 31.4231 2.73542 28.2436 5.60384 26.3987L25.7793 13.4225L45.7283 2.59085Z" fill="white" stroke="#CCCCCC" stroke-opacity="0.7" stroke-width="0.5" stroke-linecap="round"/>
<path d="M45.9309 9.07672C48.7769 7.5155 52.2231 7.5155 55.0691 9.07672L71.9674 18.3466L89.1632 29.5204C91.8667 31.2771 93.4947 34.2851 93.4869 37.5092L93.4485 53.4988L93.4485 53.5012L93.4869 69.4908C93.4947 72.7149 91.8667 75.7229 89.1632 77.4796L71.9674 88.6534L55.0691 97.9233C52.2231 99.4845 48.7769 99.4845 45.9309 97.9233L29.0326 88.6534L11.8368 77.4796C9.13331 75.7229 7.50533 72.7149 7.51308 69.4908L7.55151 53.5012L7.5515 53.4988L7.51308 37.5092C7.50533 34.2851 9.13331 31.2771 11.8368 29.5204L29.0326 18.3466L45.9309 9.07672Z" fill="white" stroke="#CCCCCC"/>
<g clip-path="url(#clip0)">
<path d="M36.6382 42.0403L36.5965 42.0083L32.0927 35.9271C31.9722 35.7668 31.9722 35.5424 32.0927 35.3822L33.0194 34.1824C33.1399 34.0221 33.353 33.958 33.543 34.0221L40.7204 36.5315C40.7204 36.5315 40.7482 36.5315 40.7621 36.559C40.7899 36.5682 40.8177 36.5819 40.8455 36.5956L42.1754 37.5756L42.4812 37.168C42.5553 37.0719 42.6665 37.0078 42.787 36.9895C42.9075 36.9711 43.0326 36.9986 43.1299 37.0719L44.835 38.322C45.0389 38.4731 45.0806 38.7616 44.9277 38.9631L44.6219 39.3706L59.2177 50.0722L59.5235 49.6647C59.593 49.5685 59.6903 49.5044 59.8061 49.4815C59.9312 49.4678 60.0517 49.4953 60.1537 49.5685L61.8542 50.8187C62.0581 50.9698 62.1044 51.2537 61.9515 51.4597L61.6457 51.8673L62.9755 52.8427C63.1794 52.9938 63.2257 53.2777 63.0728 53.4838L62.2341 54.6057L66.599 57.8111L67.4423 56.6938C67.5952 56.4923 67.8825 56.4465 68.091 56.5976L69.8147 57.8432C69.912 57.9164 69.9768 58.0263 69.9954 58.1454C70.0139 58.269 69.9815 58.3881 69.9073 58.4843L66.3209 63.2604C66.2329 63.3748 66.0939 63.4435 65.9503 63.4435C65.8483 63.4435 65.751 63.4115 65.6722 63.3519L63.9764 62.1018C63.879 62.0286 63.8095 61.9232 63.791 61.8042C63.7725 61.6851 63.8049 61.5615 63.879 61.4653L64.7177 60.3434L60.5938 57.3211C61.0294 57.802 61.3074 58.4064 61.3908 59.0475L62.8597 70.2162C62.8736 70.3352 62.8411 70.4589 62.767 70.555C62.6929 70.6512 62.5816 70.7153 62.4612 70.7291L60.3529 70.9992H60.2695C60.0332 70.9992 59.8386 70.8298 59.8061 70.6008L58.5829 61.273L58.2353 61.3142C57.8971 61.36 57.5588 61.3371 57.2299 61.2501L53.2218 66.5895C52.3692 67.7159 50.7567 67.9541 49.6123 67.1206C48.4678 66.2781 48.2314 64.6799 49.0794 63.5443L53.8149 57.2662L37.134 45.0397C36.9301 44.8886 36.8884 44.6001 37.0414 44.3986L38.0283 43.0706L36.6938 42.0907C36.6753 42.077 36.6568 42.0632 36.6382 42.0403ZM44.052 40.1033L41.0216 44.1422L48.3334 49.4815L55.6359 54.8484L58.6709 50.8049L44.052 40.1033ZM65.8298 62.3445L68.888 58.3057L67.9288 57.6005L64.9031 61.6393L65.8298 62.3445ZM65.246 59.597L66.0429 58.5346L61.6735 55.3292L60.8765 56.3961L65.246 59.597ZM62.0488 53.296L61.0896 52.5908L58.3697 56.2175C58.796 56.2496 59.213 56.3687 59.5976 56.561L59.8571 56.2175L60.3205 55.5856L62.0488 53.296ZM56.9194 60.087C57.2669 60.3526 57.7071 60.4671 58.1427 60.4121L58.9489 60.3068C59.2038 60.2747 59.4354 60.4533 59.4679 60.7006C59.4679 60.7006 59.4679 60.7006 59.4679 60.7052L60.6958 70.033L61.882 69.8819L60.4687 59.1666C60.2973 57.889 59.1157 56.9869 57.8183 57.1471C57.3318 57.2158 56.8962 57.4722 56.5997 57.8569C56.3402 58.2003 56.229 58.6308 56.2939 59.0567C56.3634 59.4688 56.5858 59.8351 56.9194 60.087ZM54.737 56.8083C54.8343 56.8815 54.8992 56.9914 54.9177 57.1105C54.9362 57.2296 54.9084 57.3532 54.8343 57.4494L49.8393 64.0938C49.2972 64.8219 49.4501 65.843 50.1822 66.3834C50.9189 66.9192 51.9522 66.7635 52.499 66.0399L56.4097 60.8471L56.3541 60.8105C55.8352 60.4167 55.4876 59.8443 55.3811 59.2078C55.2652 58.5392 55.432 57.8523 55.8444 57.312C56.1641 56.8907 56.6043 56.5747 57.1048 56.3961L60.9506 51.2812L59.9915 50.576L56.0993 55.7596C56.0251 55.8558 55.9139 55.9199 55.7935 55.9382C55.673 55.9565 55.5479 55.9291 55.4506 55.8558L40.1134 44.6047C39.9095 44.4536 39.8632 44.1697 40.0161 43.9636L43.9083 38.7799L42.9492 38.0793L38.07 44.5772L54.737 56.8083ZM38.589 42.3471L41.624 38.3083L40.6648 37.6031L37.6298 41.6419L38.589 42.3471ZM39.8215 37.1864L33.5384 34.9975L33.0426 35.6569L36.9857 40.9688L39.8215 37.1864Z" fill="black"/>
</g>
<defs>
<clipPath id="clip0">
<rect width="38" height="37" fill="white" transform="matrix(-1 0 0 1 70 34)"/>
</clipPath>
</defs>
</svg>
