<svg width="101" height="107" viewBox="0 0 101 107" fill="none" xmlns="http://www.w3.org/2000/svg">
<path d="M45.7283 2.59085C48.7043 0.975027 52.2957 0.975027 55.2717 2.59085L75.2207 13.4225L95.3962 26.3987C98.2646 28.2436 99.995 31.4231 99.9867 34.8336L99.9414 53.5L99.9867 72.1664C99.995 75.5769 98.2646 78.7564 95.3962 80.6013L75.2207 93.5775L55.2717 104.409C52.2957 106.025 48.7043 106.025 45.7283 104.409L25.7793 93.5775L5.60383 80.6013C2.73542 78.7564 1.00501 75.5769 1.01329 72.1664L1.05861 53.5L1.01329 34.8336C1.00501 31.4231 2.73542 28.2436 5.60384 26.3987L25.7793 13.4225L45.7283 2.59085Z" fill="white" stroke="#DBDBDB" stroke-width="0.5" stroke-linecap="round"/>
<path d="M45.9309 9.07672C48.7769 7.5155 52.2231 7.5155 55.0691 9.07672L71.9674 18.3466L89.1632 29.5204C91.8667 31.2771 93.4947 34.2851 93.4869 37.5092L93.4485 53.4988L93.4485 53.5012L93.4869 69.4908C93.4947 72.7149 91.8667 75.7229 89.1632 77.4796L71.9674 88.6534L55.0691 97.9233C52.2231 99.4845 48.7769 99.4845 45.9309 97.9233L29.0326 88.6534L11.8368 77.4796C9.13331 75.7229 7.50533 72.7149 7.51308 69.4908L7.55151 53.5012L7.5515 53.4988L7.51308 37.5092C7.50533 34.2851 9.13331 31.2771 11.8368 29.5204L29.0326 18.3466L45.9309 9.07672Z" fill="white" stroke="#CCCCCC"/>
<path d="M33.0285 35.88C34.1299 35.2949 35.3594 34.9925 36.6067 35.0001C42.9312 35.0001 49.6826 41.7926 50.0215 42.1313L55.3029 47.4104C55.3542 47.4611 55.3922 47.5237 55.4136 47.5925C55.435 47.6614 55.4391 47.7344 55.4256 47.8053C55.4122 47.8761 55.3815 47.9425 55.3363 47.9987C55.2911 48.0549 55.2328 48.0991 55.1665 48.1275C51.6983 49.5968 51.8832 51.3829 51.8832 51.3917C51.8938 51.46 51.8882 51.5299 51.8668 51.5956C51.8454 51.6614 51.8088 51.7211 51.7599 51.7701L51.5795 51.946L53.6965 54.0621C53.8385 53.9849 53.9855 53.9173 54.1366 53.8597C54.4181 53.7528 54.7158 53.6947 55.0168 53.6881C55.2217 53.6838 55.4254 53.7205 55.6159 53.7961C55.8063 53.8716 55.9798 53.9845 56.1259 54.1281L67.2873 63.4017C67.9871 64.1012 68.1676 65.1086 67.8463 66.2436C67.4861 67.3109 66.873 68.2754 66.0594 69.0547C64.4001 70.7132 61.9223 71.8042 60.3731 70.2513L51.1306 59.1652C50.6552 58.6857 50.5584 57.973 50.8621 57.1547C50.9199 57.0038 50.9875 56.8569 51.0646 56.7148L48.9476 54.6032L48.7671 54.7792C48.7186 54.8273 48.6596 54.8635 48.5946 54.8849C48.5297 54.9063 48.4607 54.9123 48.393 54.9023C48.393 54.9023 46.6018 54.7308 45.1362 58.2062C45.1061 58.2739 45.0595 58.333 45.0005 58.3779C44.9416 58.4228 44.8722 58.4521 44.7989 58.4631C44.7256 58.4741 44.6507 58.4663 44.5812 58.4407C44.5116 58.415 44.4497 58.3721 44.4012 58.3161L39.1197 53.0371C38.7104 52.6367 29.129 43.0904 32.8613 36.056C32.8979 35.9817 32.9562 35.9204 33.0285 35.88ZM51.7555 58.5713L60.998 69.6618C61.1513 69.8148 61.3342 69.9351 61.5354 70.0152C61.7367 70.0954 61.9522 70.1338 62.1687 70.1281C62.4394 70.1241 62.7079 70.0796 62.9654 69.9961C63.8945 69.6792 64.7338 69.1436 65.4124 68.4344C66.1207 67.756 66.6577 66.9192 66.9792 65.9928C67.2301 65.157 67.1157 64.4971 66.6712 64.0484L55.5494 54.7968L55.5186 54.7704C54.9948 54.2468 53.7185 54.8979 52.7898 55.8306C51.8612 56.7632 51.2054 58.0214 51.7555 58.5713ZM51.5223 55.9318C51.7165 55.6646 51.9314 55.4131 52.1648 55.1795C52.4007 54.947 52.6521 54.7309 52.9175 54.5328L50.9413 52.5575L49.5417 53.9521L51.5223 55.9318ZM48.6703 53.5958L50.5628 51.6953L45.5807 46.7065L41.1487 44.177L43.675 48.607L48.6703 53.5958ZM39.7227 52.4212L44.564 57.2603C45.7435 54.8363 47.1123 54.2073 47.8869 54.0577L43.0148 49.1877C42.9852 49.161 42.9599 49.1298 42.94 49.0953L39.5863 43.2179C39.5476 43.1509 39.5272 43.0749 39.5273 42.9975C39.5274 42.9202 39.5479 42.8442 39.5867 42.7772C39.6255 42.7103 39.6813 42.6548 39.7485 42.6163C39.8156 42.5778 39.8918 42.5577 39.9692 42.558C40.0448 42.5583 40.119 42.578 40.1848 42.6152L46.0692 45.9719C46.1021 45.9925 46.133 46.016 46.1616 46.0422L51.0337 50.9122C51.1834 50.1379 51.8084 48.7698 54.2378 47.5908L49.3965 42.7516C49.2997 42.6592 40.022 33.3504 33.5522 36.5927C30.3174 43.0508 39.6259 52.3288 39.7227 52.4212Z" fill="#1E1E1C"/>
</svg>
