<svg width="101" height="107" viewBox="0 0 101 107" fill="none" xmlns="http://www.w3.org/2000/svg">
<path d="M45.7283 2.59085C48.7043 0.975027 52.2957 0.975027 55.2717 2.59085L75.2207 13.4225L95.3962 26.3987C98.2646 28.2436 99.995 31.4231 99.9867 34.8336L99.9414 53.5L99.9867 72.1664C99.995 75.5769 98.2646 78.7564 95.3962 80.6013L75.2207 93.5775L55.2717 104.409C52.2957 106.025 48.7043 106.025 45.7283 104.409L25.7793 93.5775L5.60383 80.6013C2.73542 78.7564 1.00501 75.5769 1.01329 72.1664L1.05861 53.5L1.01329 34.8336C1.00501 31.4231 2.73542 28.2436 5.60384 26.3987L25.7793 13.4225L45.7283 2.59085Z" fill="white" stroke="#CCCCCC" stroke-opacity="0.7" stroke-width="0.5" stroke-linecap="round"/>
<path d="M45.9309 9.07672C48.7769 7.5155 52.2231 7.5155 55.0691 9.07672L71.9674 18.3466L89.1632 29.5204C91.8667 31.2771 93.4947 34.2851 93.4869 37.5092L93.4485 53.4988L93.4485 53.5012L93.4869 69.4908C93.4947 72.7149 91.8667 75.7229 89.1632 77.4796L71.9674 88.6534L55.0691 97.9233C52.2231 99.4845 48.7769 99.4845 45.9309 97.9233L29.0326 88.6534L11.8368 77.4796C9.13331 75.7229 7.50533 72.7149 7.51308 69.4908L7.55151 53.5012L7.5515 53.4988L7.51308 37.5092C7.50533 34.2851 9.13331 31.2771 11.8368 29.5204L29.0326 18.3466L45.9309 9.07672Z" fill="white" stroke="#CCCCCC"/>
<path d="M41.193 52.8296C39.9319 55.4725 39.2773 58.3638 39.2773 61.2921C39.2773 64.2204 39.9319 67.1118 41.193 69.7546C41.2258 69.8273 41.2787 69.8891 41.3457 69.9325C41.4126 69.9759 41.4906 69.9991 41.5704 69.9992H60.4275C60.5072 69.9991 60.5853 69.9759 60.6522 69.9325C60.7191 69.8891 60.7721 69.8273 60.8048 69.7546C62.066 67.1118 62.7205 64.2204 62.7205 61.2921C62.7205 58.3638 62.066 55.4725 60.8048 52.8296C60.7721 52.7569 60.7191 52.6951 60.6522 52.6517C60.5853 52.6083 60.5072 52.5851 60.4275 52.585H59.706V44.7071C59.706 42.3978 58.7887 40.1832 57.1558 38.5503C55.5229 36.9174 53.3082 36 50.9989 36C48.6897 36 46.475 36.9174 44.8421 38.5503C43.2092 40.1832 42.2918 42.3978 42.2918 44.7071V52.585H41.5704C41.4906 52.5851 41.4126 52.6083 41.3457 52.6517C41.2787 52.6951 41.2258 52.7569 41.193 52.8296ZM43.1211 44.7071C43.1211 42.6178 43.951 40.614 45.4284 39.1366C46.9058 37.6592 48.9096 36.8292 50.9989 36.8292C53.0883 36.8292 55.092 37.6592 56.5694 39.1366C58.0468 40.614 58.8768 42.6178 58.8768 44.7071V52.585H55.6344V44.7817C55.6344 43.5523 55.146 42.3733 54.2767 41.504C53.4074 40.6346 52.2283 40.1462 50.9989 40.1462C49.7695 40.1462 48.5905 40.6346 47.7211 41.504C46.8518 42.3733 46.3634 43.5523 46.3634 44.7817V52.585H43.1211V44.7071ZM54.8052 44.7817V52.585H47.1927V44.7817C47.1927 43.7723 47.5937 42.8041 48.3075 42.0903C49.0213 41.3765 49.9894 40.9755 50.9989 40.9755C52.0084 40.9755 52.9765 41.3765 53.6904 42.0903C54.4042 42.8041 54.8052 43.7723 54.8052 44.7817ZM42.7064 53.4142H60.158C61.2971 55.8843 61.887 58.572 61.887 61.2921C61.887 64.0122 61.2971 66.6999 60.158 69.17H41.8399C40.7008 66.6999 40.1109 64.0122 40.1109 61.2921C40.1109 58.572 40.7008 55.8843 41.8399 53.4142H42.7064Z" fill="black"/>
<path d="M49.0021 62.1964V65.4678C49.0021 65.9979 49.2126 66.5062 49.5874 66.881C49.9622 67.2558 50.4705 67.4663 51.0006 67.4663C51.5306 67.4663 52.0389 67.2558 52.4137 66.881C52.7885 66.5062 52.9991 65.9979 52.9991 65.4678V62.1964C53.6375 61.768 54.1213 61.1458 54.3792 60.4215C54.6371 59.6973 54.6555 58.9093 54.4316 58.1738C54.2077 57.4383 53.7534 56.7942 53.1356 56.3366C52.5179 55.8789 51.7694 55.6318 51.0006 55.6318C50.2317 55.6318 49.4833 55.8789 48.8655 56.3366C48.2478 56.7942 47.7934 57.4383 47.5695 58.1738C47.3456 58.9093 47.364 59.6973 47.6219 60.4215C47.8798 61.1458 48.3637 61.768 49.0021 62.1964ZM51.0006 56.4663C51.6079 56.4648 52.1987 56.6641 52.6809 57.0333C53.1632 57.4024 53.5098 57.9207 53.6669 58.5074C53.824 59.094 53.7827 59.7162 53.5494 60.2769C53.3161 60.8377 52.904 61.3055 52.3771 61.6077C52.3145 61.6438 52.2623 61.6958 52.226 61.7583C52.1896 61.8209 52.1702 61.8919 52.1698 61.9642V65.4678C52.1698 65.7779 52.0466 66.0753 51.8273 66.2946C51.6081 66.5139 51.3107 66.6371 51.0006 66.6371C50.6905 66.6371 50.3931 66.5139 50.1738 66.2946C49.9545 66.0753 49.8313 65.7779 49.8313 65.4678V61.9642C49.8309 61.8919 49.8115 61.8209 49.7752 61.7583C49.7388 61.6958 49.6867 61.6438 49.624 61.6077C49.0972 61.3055 48.685 60.8377 48.4517 60.2769C48.2184 59.7162 48.1771 59.094 48.3342 58.5074C48.4913 57.9207 48.8379 57.4024 49.3202 57.0333C49.8024 56.6641 50.3932 56.4648 51.0006 56.4663Z" fill="black"/>
</svg>
