<svg width="101" height="107" viewBox="0 0 101 107" fill="none" xmlns="http://www.w3.org/2000/svg">
<path d="M45.7283 2.59085C48.7043 0.975027 52.2957 0.975027 55.2717 2.59085L75.2207 13.4225L95.3962 26.3987C98.2646 28.2436 99.995 31.4231 99.9867 34.8336L99.9414 53.5L99.9867 72.1664C99.995 75.5769 98.2646 78.7564 95.3962 80.6013L75.2207 93.5775L55.2717 104.409C52.2957 106.025 48.7043 106.025 45.7283 104.409L25.7793 93.5775L5.60383 80.6013C2.73542 78.7564 1.00501 75.5769 1.01329 72.1664L1.05861 53.5L1.01329 34.8336C1.00501 31.4231 2.73542 28.2436 5.60384 26.3987L25.7793 13.4225L45.7283 2.59085Z" fill="white" stroke="#CCCCCC" stroke-opacity="0.7" stroke-width="0.5" stroke-linecap="round"/>
<path d="M45.9309 9.07672C48.7769 7.5155 52.2231 7.5155 55.0691 9.07672L71.9674 18.3466L89.1632 29.5204C91.8667 31.2771 93.4947 34.2851 93.4869 37.5092L93.4485 53.4988L93.4485 53.5012L93.4869 69.4908C93.4947 72.7149 91.8667 75.7229 89.1632 77.4796L71.9674 88.6534L55.0691 97.9233C52.2231 99.4845 48.7769 99.4845 45.9309 97.9233L29.0326 88.6534L11.8368 77.4796C9.13331 75.7229 7.50533 72.7149 7.51308 69.4908L7.55151 53.5012L7.5515 53.4988L7.51308 37.5092C7.50533 34.2851 9.13331 31.2771 11.8368 29.5204L29.0326 18.3466L45.9309 9.07672Z" fill="white" stroke="#CCCCCC"/>
<path d="M41.2379 42.9998C40.9246 42.8515 40.5759 42.7941 40.2316 42.8342C39.8872 42.8743 39.5611 43.0103 39.2902 43.2265C39.0193 43.4428 38.8145 43.7308 38.6992 44.0577C38.5839 44.3847 38.5627 44.7374 38.6379 45.0758L42.2819 63.8358V68.9998C42.2819 69.1059 42.324 69.2076 42.3991 69.2826C42.4741 69.3576 42.5758 69.3998 42.6819 69.3998H56.6819C56.788 69.3998 56.8897 69.3576 56.9647 69.2826C57.0398 69.2076 57.0819 69.1059 57.0819 68.9998V63.8758C57.5979 62.3118 61.4019 50.8918 61.4019 49.4518C61.3807 49.0194 61.2182 48.606 60.9392 48.2751C60.6603 47.9441 60.2804 47.7139 59.8579 47.6198C59.3739 47.4998 57.6939 47.3078 56.3419 49.8598C56.1339 50.2598 55.9419 50.5838 55.7979 50.8838L56.5499 40.0118C56.5863 39.453 56.4113 38.901 56.0597 38.4652C55.7081 38.0295 55.2056 37.7418 54.6517 37.6592C54.0979 37.5766 53.5333 37.7052 53.0699 38.0195C52.6065 38.3337 52.2781 38.8107 52.1499 39.3558L51.3099 44.4038L50.8579 38.7718C50.834 38.1681 50.5713 37.5987 50.1276 37.1888C49.6839 36.7788 49.0955 36.5619 48.4919 36.5858C47.8883 36.6096 47.3188 36.8723 46.9089 37.316C46.4989 37.7597 46.282 38.3481 46.3059 38.9518L46.4379 42.9998L45.8659 40.2478C45.7716 39.7995 45.5156 39.4017 45.1467 39.1302C44.7778 38.8587 44.3219 38.7325 43.8659 38.7758C43.6211 38.7997 43.3836 38.872 43.1669 38.9883C42.9503 39.1047 42.7588 39.2629 42.6037 39.4537C42.4486 39.6445 42.3328 39.8642 42.2632 40.1001C42.1935 40.3359 42.1713 40.5833 42.1979 40.8278L42.7099 45.5758L42.1939 44.0918C42.1171 43.8543 41.9927 43.635 41.8284 43.4473C41.664 43.2595 41.4631 43.1073 41.2379 42.9998ZM56.2939 68.5998H43.0939V64.1998H56.2939V68.5998ZM43.0939 49.0998C43.1259 49.1926 43.191 49.2705 43.2767 49.3185C43.3624 49.3665 43.4627 49.3812 43.5586 49.36C43.6545 49.3387 43.7393 49.2829 43.7967 49.2032C43.8541 49.1235 43.8801 49.0255 43.8699 48.9278L42.9939 40.7198C42.9731 40.4537 43.0534 40.1896 43.2188 39.9801C43.3842 39.7706 43.6225 39.6313 43.8862 39.5899C44.1498 39.5485 44.4194 39.608 44.6411 39.7567C44.8627 39.9053 45.0201 40.1321 45.0819 40.3918L46.5979 47.6678C46.6106 47.7739 46.665 47.8705 46.749 47.9365C46.833 48.0026 46.9398 48.0325 47.0459 48.0198C47.152 48.007 47.2487 47.9527 47.3147 47.8687C47.3807 47.7846 47.4106 47.6779 47.3979 47.5718L47.1139 38.9278C47.1051 38.7308 47.136 38.534 47.2047 38.3492C47.2734 38.1643 47.3786 37.9952 47.5139 37.8518C47.6515 37.7073 47.8172 37.5926 48.001 37.5148C48.1847 37.4371 48.3824 37.3979 48.5819 37.3998C48.9646 37.4005 49.3322 37.549 49.608 37.8144C49.8838 38.0797 50.0464 38.4414 50.0619 38.8238L50.7979 47.7398C50.7937 47.8459 50.8317 47.9493 50.9037 48.0273C50.9758 48.1053 51.0758 48.1515 51.1819 48.1558C51.288 48.16 51.3914 48.1219 51.4694 48.0499C51.5474 47.9779 51.5937 47.8779 51.5979 47.7718L52.9539 39.5038C53.0244 39.14 53.2333 38.8177 53.5365 38.6046C53.8397 38.3916 54.2137 38.3044 54.5799 38.3613C54.9461 38.4183 55.2759 38.615 55.5 38.9101C55.7242 39.2052 55.8252 39.5757 55.7819 39.9438L54.8619 52.8158C54.7819 53.0958 54.8619 53.1518 55.0299 53.2438C55.1245 53.2932 55.2341 53.3059 55.3375 53.2793C55.441 53.2527 55.5309 53.1887 55.5899 53.0998C55.6264 53.0463 55.6484 52.9843 55.6539 52.9198C55.7499 52.7158 56.0539 52.1198 57.0459 50.2318C57.7779 48.8558 58.7579 48.1678 59.6619 48.3958C59.9102 48.4496 60.135 48.5809 60.3039 48.7706C60.4728 48.9604 60.5772 49.1989 60.6019 49.4518C60.6019 50.4398 58.1259 58.2518 56.4059 63.4118H43.0139L39.4139 44.9198C39.3566 44.6704 39.3924 44.4087 39.5148 44.184C39.6371 43.9592 39.8374 43.787 40.0779 43.6998C40.2086 43.6517 40.3476 43.6301 40.4867 43.6363C40.6258 43.6426 40.7623 43.6765 40.8882 43.7361C41.0141 43.7957 41.1268 43.8797 41.2198 43.9834C41.3128 44.087 41.3842 44.2082 41.4299 44.3398L43.0939 49.0998Z" fill="black"/>
</svg>
