<svg width="101" height="107" viewBox="0 0 101 107" fill="none" xmlns="http://www.w3.org/2000/svg">
<path d="M45.7283 2.59085C48.7043 0.975027 52.2957 0.975027 55.2717 2.59085L75.2207 13.4225L95.3962 26.3987C98.2646 28.2436 99.995 31.4231 99.9867 34.8336L99.9414 53.5L99.9867 72.1664C99.995 75.5769 98.2646 78.7564 95.3962 80.6013L75.2207 93.5775L55.2717 104.409C52.2957 106.025 48.7043 106.025 45.7283 104.409L25.7793 93.5775L5.60383 80.6013C2.73542 78.7564 1.00501 75.5769 1.01329 72.1664L1.05861 53.5L1.01329 34.8336C1.00501 31.4231 2.73542 28.2436 5.60384 26.3987L25.7793 13.4225L45.7283 2.59085Z" fill="white" stroke="#CCCCCC" stroke-opacity="0.7" stroke-width="0.5" stroke-linecap="round"/>
<path d="M45.9309 9.07672C48.7769 7.5155 52.2231 7.5155 55.0691 9.07672L71.9674 18.3466L89.1632 29.5204C91.8667 31.2771 93.4947 34.2851 93.4869 37.5092L93.4485 53.4988L93.4485 53.5012L93.4869 69.4908C93.4947 72.7149 91.8667 75.7229 89.1632 77.4796L71.9674 88.6534L55.0691 97.9233C52.2231 99.4845 48.7769 99.4845 45.9309 97.9233L29.0326 88.6534L11.8368 77.4796C9.13331 75.7229 7.50533 72.7149 7.51308 69.4908L7.55151 53.5012L7.5515 53.4988L7.51308 37.5092C7.50533 34.2851 9.13331 31.2771 11.8368 29.5204L29.0326 18.3466L45.9309 9.07672Z" fill="white" stroke="#CCCCCC"/>
<path d="M37.2563 53.8786C37.3832 54.0066 37.5589 54.0777 37.7444 54.0824C37.9347 54.0824 38.1202 54.0113 38.2569 53.8786L40.6534 51.5567C40.9365 51.2866 40.9414 50.8459 40.6632 50.571C40.6583 50.5663 40.6583 50.5663 40.6534 50.5615L40.0482 49.9929C40.4192 49.5617 40.9268 49.2679 41.4881 49.1494C42.2398 49.0309 43.0549 49.3721 43.9042 50.1682C44.0946 50.3483 44.3972 50.3483 44.5876 50.1682L45.1245 49.647L66.601 70.4973C67.2941 71.1655 68.4167 71.1655 69.1098 70.4973L70.4814 69.1657C71.1696 68.4928 71.1696 67.4029 70.4814 66.73L49.0049 45.8797L49.5467 45.3395C49.737 45.1547 49.737 44.8561 49.5467 44.6713C48.058 43.3018 46.9793 41.5675 46.4228 39.653C46.3594 39.4161 46.4033 39.1602 46.5448 38.9564C46.6766 38.7621 46.8914 38.6342 47.1306 38.6058C49.6101 38.3025 52.6754 40.3733 52.7096 40.397C52.9097 40.5344 53.1879 40.506 53.3539 40.3259L54.5595 39.0228C54.6473 38.928 54.6913 38.8048 54.6815 38.6768C54.6718 38.5489 54.6132 38.4352 54.5156 38.3499C47.399 32.3033 42.2886 36.2743 42.2251 36.3454L35.5967 42.7569C35.4552 42.899 35.4161 43.1075 35.4991 43.2876C35.8749 43.9463 35.7627 44.7661 35.2209 45.3016L34.6107 44.7092C34.3228 44.4439 33.8737 44.4439 33.5857 44.7092L31.2087 47.017C30.9304 47.2918 30.9304 47.7373 31.2087 48.0121L37.2563 53.8786ZM69.7736 67.3792C70.086 67.6825 70.086 68.1706 69.7736 68.4739L68.407 69.8007C68.0946 70.104 67.5918 70.104 67.2794 69.8007L62.1104 64.7872L64.6095 62.3609L69.7736 67.3792ZM63.9164 61.6928L61.4222 64.1143L45.8029 48.9504L48.302 46.5242L63.9164 61.6928ZM36.5143 43.2118L42.8597 37.0515C43.0354 36.9093 47.2526 33.7012 53.4954 38.7527L52.9048 39.3924C51.9579 38.8143 49.3466 37.3879 47.0085 37.6722C46.496 37.7338 46.0323 38.0087 45.7395 38.4257C45.4369 38.8522 45.3441 39.3877 45.4759 39.89C46.0275 41.8186 47.0769 43.5767 48.5217 44.9983L44.2264 49.1873C43.4552 48.4718 42.396 48.1211 41.3368 48.2396C40.5705 48.3865 39.8725 48.775 39.36 49.3484L35.9091 45.9982C36.6754 45.2731 36.9146 44.169 36.5143 43.2071V43.2118ZM34.0738 45.5575L39.7846 51.0828L37.7639 53.0446L32.0775 47.5145L34.0738 45.5575Z" fill="black"/>
</svg>
